<svg data-v-6805eed4="" version="1.0" xmlns="http://www.w3.org/2000/svg" xmlns:xlink="http://www.w3.org/1999/xlink"
    width="512" height="512" viewBox="0 0 300 300" preserveAspectRatio="xMidYMid meet"
    color-interpolation-filters="sRGB" style="margin: auto;">
    <g data-v-6805eed4="" fill="#005eae" class="icon-text-wrapper icon-svg-group iconsvg" transform="scale(5)">
        <g class="iconsvg-imagesvg" transform="translate(0,0)">
            <g>
                <rect fill="#005eae" fill-opacity="0" stroke-width="2" x="0" y="0" width="60"
                    height="59.935269908498825" class="image-rect"></rect> <svg x="0" y="0" width="60"
                    height="59.935269908498825" filtersec="colorsb4074013123" class="image-svg-svg primary"
                    style="overflow: visible;"><svg xmlns="http://www.w3.org/2000/svg"
                        viewBox="0 0 83.7911376953125 83.70095825195312">
                        <defs>
                            <clipPath id="af8780960-558e-4b27-8099-c57f7d6509e4">
                                <path
                                    d="M60.86 28.32c-3 0-6.57.93-10.77 3.28a105.05 105.05 0 0 0-12.18 7.65c-9.56 7.14-18.39 10.9-26.29 11.3a31.9 31.9 0 0 0 62.56-8.89c0-3.82-3.76-13.33-13.33-13.33"
                                    fill="none"></path>
                            </clipPath>
                            <linearGradient id="bb226d07a-ad4c-46d7-8ea3-718050be9692" x1="-369.28" y1="305.41"
                                x2="-368.36" y2="305.41" gradientTransform="matrix(68.06 0 0 -68.06 25145.73 20838.13)"
                                gradientUnits="userSpaceOnUse">
                                <stop offset="0" stop-color="#007dc9"></stop>
                                <stop offset="1" stop-color="#76cbf3"></stop>
                            </linearGradient>
                            <linearGradient id="cfd38b1cb-d8b8-43e6-a358-e8906f9c5531" x1="-369.52" y1="305.24"
                                x2="-368.6" y2="305.24" gradientTransform="matrix(64.06 0 0 -64.06 23684.8 19606.04)"
                                gradientUnits="userSpaceOnUse">
                                <stop offset="0" stop-color="#005eae"></stop>
                                <stop offset="1" stop-color="#00a5ea"></stop>
                            </linearGradient>
                            <linearGradient id="d8be6f783-9456-47e1-a7b0-41f42e67e149" x1="-365.41" y1="308.05"
                                x2="-364.41" y2="308.05" gradientTransform="matrix(83.29 0 0 -83.29 30436.96 25716.13)"
                                gradientUnits="userSpaceOnUse">
                                <stop offset="0" stop-color="#727172"></stop>
                                <stop offset="1" stop-color="#76cbf3"></stop>
                            </linearGradient>
                            <linearGradient id="e5382e2c8-c5a2-44dd-89f2-4d064cf080ba" x1="-365.41" y1="308.04"
                                x2="-364.41" y2="308.04" gradientTransform="matrix(81.08 0 0 -81.08 29626.15 25003.83)"
                                gradientUnits="userSpaceOnUse">
                                <stop offset="0" stop-color="#727172"></stop>
                                <stop offset="1" stop-color="#76cbf3"></stop>
                            </linearGradient>
                            <linearGradient id="f56a87192-3e2d-4c42-8439-94f358ef4f68" x1="-365.41" y1="308.05"
                                x2="-364.41" y2="308.05" gradientTransform="matrix(64.09 0 0 -64.09 23419.03 19761.63)"
                                gradientUnits="userSpaceOnUse">
                                <stop offset="0" stop-color="#727172"></stop>
                                <stop offset="1" stop-color="#76cbf3"></stop>
                            </linearGradient>
                            <linearGradient id="g6d8e1676-1505-4e2e-aee1-22afe190d53a" x1="-365.41" y1="308.25"
                                x2="-364.41" y2="308.25" gradientTransform="matrix(58.45 0 0 -58.45 21370.59 18057.53)"
                                gradientUnits="userSpaceOnUse">
                                <stop offset="0" stop-color="#007dc9"></stop>
                                <stop offset="1" stop-color="#76cbf3"></stop>
                            </linearGradient>
                            <linearGradient id="h43d1d71c-a4e6-46ef-87eb-e3334cf66a82" x1="-365.41" y1="308.05"
                                x2="-364.41" y2="308.05" gradientTransform="matrix(37.45 0 0 -37.45 13684.71 11549.52)"
                                gradientUnits="userSpaceOnUse">
                                <stop offset="0" stop-color="#727172"></stop>
                                <stop offset="1" stop-color="#76cbf3"></stop>
                            </linearGradient>
                        </defs>
                        <g>
                            <g>
                                <g clip-path="url(#af8780960-558e-4b27-8099-c57f7d6509e4)">
                                    <path fill="url(#bb226d07a-ad4c-46d7-8ea3-718050be9692)"
                                        d="M11.62 28.32h62.56v45.32H11.62z"></path>
                                </g>
                                <path
                                    d="M42.79 42c4.39-2.67 8.36-5.11 12.12-7 6.77-3.48 11.87-3.57 15.61-2.11-3.61-4.25-10.09-7-20.42-1.25a105.05 105.05 0 0 0-12.18 7.65c-9.56 7.14-18.39 10.9-26.29 11.3A31.88 31.88 0 0 0 42.2 73.63c.72 0 1.4-.16 2.11-.21C31.07 72.35 20.93 55.31 42.79 42z"
                                    fill="url(#cfd38b1cb-d8b8-43e6-a358-e8906f9c5531)"></path>
                                <path
                                    d="M76.62 30.56A36.44 36.44 0 1 1 6.51 50.32a20.42 20.42 0 0 1-6-1.83 41.91 41.91 0 1 0 82.19-16.2s.32-.12-1.9-.77-4.1-.87-4.23-1"
                                    fill="url(#d8be6f783-9456-47e1-a7b0-41f42e67e149)"></path>
                                <path
                                    d="M67.23 11.8c-7.31 0-19.72 4.48-30.15 12.4S20.44 40.63 8.14 40.63a33.42 33.42 0 0 1-8-1.06C.07 40.32 0 41 0 41.76s.07 1.24.09 1.79a16.26 16.26 0 0 0 8.55 2.18c5.67 0 13.82-2.26 24.79-10.38 13.89-10.27 24.44-13.19 32-13.19a25.17 25.17 0 0 1 11.27 2.49c2.55 1.25 3.95 2.49 4.29 2.49a.08.08 0 0 0 .08-.08c-.14-.36-.25-.72-.4-1.07a43.12 43.12 0 0 0-3.12-6.1c-.12-.19-.22-.38-.35-.57a42.38 42.38 0 0 0-4.43-5.76l-.14-.16c-1-1.08-2.93-1.6-5.42-1.6"
                                    fill="url(#e5382e2c8-c5a2-44dd-89f2-4d064cf080ba)"></path>
                                <path
                                    d="M49.38.59A70.67 70.67 0 0 0 32.95 12C22.57 21.69 17 31.48 2.15 31.48h-.82A42.14 42.14 0 0 0 .44 36a17.26 17.26 0 0 0 4 .45c5.79 0 14.51-2.61 26.1-13.17C45.28 9.89 56.65 6.56 64.53 6.55a41.58 41.58 0 0 0-15.14-6"
                                    fill="url(#f56a87192-3e2d-4c42-8439-94f358ef4f68)"></path>
                                <path
                                    d="M60.41 28.47c-3 0-6.5.93-10.67 3.25a104.89 104.89 0 0 0-12.09 7.59c-9.49 7.09-18.26 10.83-26.1 11.22 7.84-.4 16.6-4.14 26.09-11.22a104.65 104.65 0 0 1 12.09-7.59c4.17-2.32 7.71-3.25 10.69-3.25a13.51 13.51 0 0 1 1.7.11 13.43 13.43 0 0 0-1.72-.11"
                                    fill="url(#g6d8e1676-1505-4e2e-aee1-22afe190d53a)"></path>
                                <path
                                    d="M39.45 0a41.51 41.51 0 0 0-9 1.61l.08-.13a42 42 0 0 0-5.72 2.13c-.17.08-.36.11-.53.19l-.08.1A41.87 41.87 0 0 0 4.47 23.12h-.06c-.11.21-.17.45-.27.66-.34.71-.72 1.4-1 2.14h.16c-.43 1-.93 2-1.27 3.08 5.34-.62 12.94-4 22.33-15.13A71 71 0 0 1 39.45 0"
                                    fill="url(#h43d1d71c-a4e6-46ef-87eb-e3334cf66a82)"></path>
                            </g>
                        </g>
                    </svg></svg>
                <!---->
            </g>
        </g>
    </g>
    <defs v-gra="od"></defs>
</svg>